# xmcd
# 
# Track frame offsets:
#     150
#     14655
#     26667
#     41345
#     54190
#     73390
#     97890
#     158613
#     180696
#     223088
#     249805
# 
# Disc length: 3693
# 
# Revision: 3
# Processed by: cddbd v1.5.2PL0 Copyright (c) Steve Scherf et al.
# Submitted via: BonkEnc v1.0.6
# 
DISCID=8b0e6b0b
DTITLE=Miles Davis - Milestones
DYEAR=1956
DGENRE=Jazz
TTITLE0=Charlie Parker's Reboppers - Billie's Bounce
TTITLE1=Miles Davis All Stars - Milestones
TTITLE2=Miles Davis And His Orchestra - Jeru
TTITLE3=Miles Davis And His Orchestra - Deception
TTITLE4=Miles Davis All Stars - Dear Old Stockholm
TTITLE5=Miles Davis Quartet - Well You Needn't
TTITLE6=Miles Davis Sextet - Walkin'
TTITLE7=Miles Davis Quintet - Doxy
TTITLE8=Miles Davis All Stars - Bag's Groove
TTITLE9=Miles Davis Quintet - 'Round About Midnight
TTITLE10=Miles Davis Quintet - My Funny Valentine
EXTD=
EXTT0=
EXTT1=
EXTT2=
EXTT3=
EXTT4=
EXTT5=
EXTT6=
EXTT7=
EXTT8=
EXTT9=
EXTT10=
PLAYORDER=
